<?xml version="1.0" encoding="UTF-8"?>
<svg id="Calque_2" data-name="Calque 2" xmlns="http://www.w3.org/2000/svg" viewBox="0 0 489.51 242.89">
  <defs>
    <style>
      .cls-1 {
        fill: #90187a;
      }

      .cls-2 {
        fill: #fecd5a;
      }
    </style>
  </defs>
  <g id="Calque_1-2" data-name="Calque 1">
    <g>
      <path class="cls-2" d="M458.86,0c-16.93,0-30.65,13.71-30.65,30.64s13.72,30.66,30.65,30.66,30.65-13.71,30.65-30.66S475.79,0,458.86,0"/>
      <path class="cls-2" d="M411.68,60.2c-10.07,0-18.23,8.16-18.23,18.23s8.16,18.24,18.23,18.24,18.23-8.16,18.23-18.24-8.16-18.23-18.23-18.23"/>
      <g>
        <path class="cls-1" d="M280.02,75.74V26h29.01v49.73c0,5.53,2.07,10.36,6.22,14.51,4.14,4.14,8.98,6.22,14.51,6.22h24.87c13.81,0,25.56,4.84,35.23,14.51,9.67,9.67,14.51,21.41,14.51,35.23v49.74h-29.01v-49.74c0-5.52-2.07-10.36-6.22-14.5-4.14-4.14-8.98-6.22-14.51-6.22h-24.87c-5.53,0-10.36,2.07-14.51,6.22-4.14,4.14-6.22,8.98-6.22,14.5v49.74h-29.01v-49.74c0-13.81,4.83-25.56,14.51-35.23-9.67-9.67-14.51-21.41-14.51-35.23Z"/>
        <path class="cls-1" d="M158.18,63.9c-9.67-9.67-21.41-14.61-35.23-14.61,0,0-57.74-.12-75.3,0-4.67-.46-8.81-2.5-12.42-6.11-4.14-4.14-6.22-8.98-6.22-14.51v-2.73H0v2.73c0,13.82,4.83,25.56,14.51,35.23C4.83,73.57,0,85.31,0,99.12v96.81h29.01v-96.81c0-5.52,2.07-10.36,6.22-14.5,4.14-4.14,8.98-6.22,14.51-6.22h2.03c5.53,0,10.36,2.07,14.51,6.22,3.7,3.71,5.75,7.96,6.14,12.77-.02.57-.03,1.15-.03,1.73v96.81h29.11v-96.81c0-.58-.01-1.16-.03-1.73.39-4.81,2.44-9.07,6.14-12.77,4.14-4.14,8.98-6.22,14.51-6.22h.84c5.53,0,10.36,2.07,14.51,6.22,4.14,4.14,6.22,8.98,6.22,14.5v96.81l29.01-29.49v-67.31c0-13.81-4.84-25.56-14.51-35.23Z"/>
        <g>
          <path class="cls-1" d="M26.84,222.64c0,6.9-5.17,11.19-13.44,11.19h-6.23v8.53H0v-30.95h13.4c8.27,0,13.44,4.29,13.44,11.23ZM19.59,222.64c0-3.4-2.21-5.39-6.59-5.39h-5.84v10.74h5.84c4.38,0,6.59-1.99,6.59-5.35Z"/>
          <path class="cls-1" d="M56.95,235.72h-14.37l-2.74,6.63h-7.34l13.79-30.95h7.07l13.84,30.95h-7.52l-2.74-6.63ZM54.7,230.29l-4.91-11.85-4.91,11.85h9.82Z"/>
          <path class="cls-1" d="M96.35,242.36l-5.97-8.62h-6.59v8.62h-7.16v-30.95h13.4c8.27,0,13.44,4.29,13.44,11.23,0,4.64-2.34,8.05-6.37,9.77l6.94,9.95h-7.69ZM89.63,217.24h-5.84v10.79h5.84c4.38,0,6.59-2.03,6.59-5.39s-2.21-5.39-6.59-5.39Z"/>
          <path class="cls-1" d="M115.32,211.41h7.16v30.95h-7.16v-30.95Z"/>
          <path class="cls-1" d="M133.58,239.31l2.43-5.39c2.61,1.9,6.5,3.23,10.21,3.23,4.24,0,5.97-1.41,5.97-3.32,0-5.79-17.99-1.81-17.99-13.31,0-5.26,4.24-9.64,13.04-9.64,3.89,0,7.87.93,10.74,2.74l-2.21,5.44c-2.87-1.64-5.84-2.43-8.58-2.43-4.24,0-5.88,1.59-5.88,3.54,0,5.7,17.99,1.77,17.99,13.13,0,5.17-4.29,9.59-13.13,9.59-4.91,0-9.86-1.46-12.6-3.58Z"/>
          <path class="cls-1" d="M169.66,227.15h12.51v5.53h-12.51v-5.53Z"/>
          <path class="cls-1" d="M191.24,239.31l2.43-5.39c2.61,1.9,6.5,3.23,10.21,3.23,4.24,0,5.97-1.41,5.97-3.32,0-5.79-17.99-1.81-17.99-13.31,0-5.26,4.24-9.64,13.04-9.64,3.89,0,7.87.93,10.74,2.74l-2.21,5.44c-2.87-1.64-5.84-2.43-8.58-2.43-4.24,0-5.88,1.59-5.88,3.54,0,5.7,17.99,1.77,17.99,13.13,0,5.17-4.29,9.59-13.13,9.59-4.91,0-9.86-1.46-12.6-3.58Z"/>
          <path class="cls-1" d="M248.45,235.72h-14.37l-2.74,6.63h-7.34l13.79-30.95h7.07l13.84,30.95h-7.52l-2.74-6.63ZM246.2,230.29l-4.91-11.85-4.91,11.85h9.82Z"/>
          <path class="cls-1" d="M265.74,226.88c0-9.33,7.16-16.01,16.8-16.01,5.35,0,9.82,1.95,12.73,5.48l-4.6,4.24c-2.08-2.39-4.69-3.63-7.78-3.63-5.79,0-9.9,4.07-9.9,9.9s4.11,9.9,9.9,9.9c3.09,0,5.7-1.24,7.78-3.67l4.6,4.24c-2.92,3.58-7.38,5.53-12.78,5.53-9.59,0-16.76-6.68-16.76-16Z"/>
          <path class="cls-1" d="M306.29,211.41h7.16v25.11h15.52v5.84h-22.68v-30.95Z"/>
          <path class="cls-1" d="M359.83,235.72h-14.37l-2.74,6.63h-7.34l13.79-30.95h7.07l13.84,30.95h-7.52l-2.74-6.63ZM357.58,230.29l-4.91-11.85-4.91,11.85h9.82Z"/>
          <path class="cls-1" d="M392.47,231.39v10.96h-7.16v-11.05l-11.98-19.9h7.6l8.27,13.75,8.27-13.75h7.03l-12.03,19.98Z"/>
        </g>
        <g>
          <path class="cls-1" d="M258.48,117.24l-12.24-12.04-18.73,19.03,12.24,12.04s.07.07.11.11c3.59,3.59,5.59,8.36,5.63,13.45.04,5.14-1.92,9.99-5.53,13.65-3.6,3.66-8.42,5.7-13.56,5.74-5.14.04-9.99-1.92-13.65-5.53l-12.24-12.04-18.73,19.03,12.24,12.04c8.75,8.61,20.32,13.29,32.59,13.2,12.27-.1,23.77-4.97,32.38-13.71,8.61-8.75,13.29-20.32,13.2-32.59-.1-12.27-4.95-23.77-13.71-32.38Z"/>
          <path class="cls-1" d="M192.83,127.76l12.24,12.04,18.73-19.03-12.24-12.04s-.07-.07-.11-.11c-7.45-7.45-7.51-19.57-.11-27.1,7.44-7.56,19.65-7.66,27.21-.22l12.24,12.04,18.73-19.03-12.24-12.04c-18.05-17.77-47.2-17.54-64.97.52-17.68,17.97-17.54,46.91.25,64.71.09.09.18.17.26.26Z"/>
        </g>
      </g>
    </g>
  </g>
</svg>